<svg width="140" height="140" viewBox="0 0 140 140" fill="none" xmlns="http://www.w3.org/2000/svg">
<circle cx="70" cy="70" r="70" fill="url(#paint0_linear)"/>
<g clip-path="url(#clip0)">
<path d="M109.319 44.9973C108.824 43.875 108.031 43.0164 107.079 42.4891C106.128 41.9619 105.058 41.7585 103.957 41.7585C102.691 41.7585 101.366 42.0297 100.04 42.459C98.0483 43.1067 96.0489 44.116 94.2591 45.2308C92.4693 46.3531 90.9042 47.5733 89.7959 48.688L89.781 48.7031C89.5488 48.9441 89.3541 49.0797 89.1819 49.155C89.0096 49.2303 88.8674 49.2604 88.7176 49.2604C88.4555 49.2604 88.126 49.1625 87.7366 48.929C87.1525 48.5826 86.4935 47.9348 85.9094 47.2343C85.3178 46.5338 84.7936 45.7957 84.3742 45.2308C83.6179 44.2215 82.0902 42.4364 79.7838 40.8773C77.4923 39.3256 74.3845 38 70.5804 38C70.5055 38 70.4381 38 70.3632 38C70.2359 38 70.1161 38.0301 70.0037 38.0678C69.8914 38.0301 69.7716 38 69.6443 38C69.5694 38 69.4945 38 69.4271 38C65.6155 38 62.5152 39.3256 60.2087 40.8848C57.9023 42.4439 56.3746 44.229 55.6183 45.2383C55.0566 45.9915 54.3078 47.0611 53.484 47.9122C53.0722 48.334 52.6453 48.7031 52.2634 48.929C51.874 49.1625 51.5445 49.268 51.2824 49.2604C51.1252 49.2604 50.9829 49.2303 50.8181 49.155C50.6459 49.0797 50.4512 48.9366 50.219 48.7031L50.2041 48.688C48.7288 47.2042 46.4373 45.5245 43.8912 44.1612C42.6182 43.4833 41.2852 42.8883 39.9597 42.459C38.6343 42.0297 37.3088 41.7585 36.0432 41.7585C35.3094 41.7585 34.5905 41.8489 33.909 42.0673C32.8906 42.3912 31.947 43.0239 31.2731 43.9654C30.5991 44.9069 30.1872 46.1196 30.0374 47.5808C30.015 47.8294 30 48.0704 30 48.3114C30 49.8329 30.5017 51.1736 31.2057 52.2883C32.269 53.9605 33.7742 55.1581 35.0098 55.9715C35.9758 56.6042 36.7771 56.9959 37.1066 57.1465C37.2714 57.8018 37.526 58.5324 37.9603 59.2555C38.4546 60.0916 39.1884 60.9126 40.2069 61.5528C41.2253 62.193 42.5133 62.6525 44.1084 62.8257L44.2881 62.8332C46.5422 62.7203 48.272 62.1102 49.4777 61.0783C50.0243 60.6113 50.4437 60.0614 50.7357 59.4664C52.5779 58.9015 54.3677 58.6153 55.7081 58.4646C56.3147 58.3968 56.8164 58.3592 57.1984 58.3441C57.8199 59.9786 58.6062 61.7336 59.5198 63.4057C59.8792 64.061 60.2612 64.7087 60.6581 65.3263C60.3735 66.0419 59.4 68.6706 59.4 72.1956C59.4 74.1991 59.7145 76.4889 60.673 78.8389C60.8977 79.4038 61.1673 79.9687 61.4743 80.5411C61.4369 80.6315 61.4069 80.737 61.3994 80.8424C61.3994 80.865 61.1823 83.1924 61.1823 86.1525C61.1823 88.7511 61.3395 91.8091 61.991 94.3173L62.006 94.37C62.5826 96.2154 62.7024 97.5711 62.7024 98.3921C62.7024 98.7386 62.68 98.9872 62.665 99.1453C62.6575 99.2207 62.65 99.2809 62.6425 99.3035L62.635 99.3261L62.6051 99.4994C62.6051 99.5219 62.5976 99.5973 62.5976 99.7178C62.6051 99.9513 62.6051 100.328 62.7623 100.795C62.8447 101.028 62.972 101.3 63.2341 101.556C63.3689 101.684 63.5336 101.804 63.7358 101.879C63.9305 101.962 64.1477 102 64.3499 102C64.7992 101.992 65.1661 101.842 65.5106 101.631C65.8551 101.42 66.1996 101.134 66.5815 100.75C67.57 99.7554 68.4162 99.296 69.0003 99.0625C69.2923 98.9495 69.517 98.8968 69.6668 98.8742C69.7416 98.8591 69.7941 98.8591 69.824 98.8516H69.854V98.8441H69.9588H70.0711V98.8516L70.1311 98.8591C70.4306 98.8968 71.7635 99.0851 73.426 100.75C73.8079 101.134 74.1449 101.413 74.4969 101.631C74.8413 101.842 75.2158 101.992 75.6576 102C75.8598 102 76.0769 101.962 76.2716 101.879C76.6161 101.736 76.8632 101.488 77.013 101.262C77.2377 100.915 77.3051 100.607 77.3575 100.35C77.4024 100.094 77.4099 99.876 77.4099 99.7253C77.4099 99.6048 77.4024 99.5295 77.4024 99.5069L77.3725 99.3336C77.3725 99.3186 77.3051 98.9947 77.3051 98.3921C77.3051 97.5636 77.4249 96.2078 78.0015 94.37L78.0165 94.3173C78.668 91.8091 78.8252 88.7511 78.8252 86.1525C78.8252 83.1924 78.6081 80.8575 78.6081 80.8424C78.6006 80.737 78.5706 80.6315 78.5332 80.5411C78.8402 79.9762 79.1023 79.4038 79.3345 78.8389C80.2855 76.4813 80.6075 74.1916 80.6075 72.1956C80.6075 68.6555 79.6265 66.0193 79.3419 65.3188C80.6974 63.1948 81.8656 60.792 82.7268 58.5701C82.7567 58.4948 82.7792 58.4194 82.8091 58.3441C84.0447 58.4119 86.6058 58.6529 89.2643 59.4664C89.5563 60.0614 89.9757 60.6188 90.5223 61.0783C91.728 62.1026 93.4578 62.7203 95.7119 62.8332L95.8991 62.8182C97.4941 62.6449 98.7822 62.1855 99.8006 61.5453C101.328 60.5811 102.189 59.2254 102.639 58.0052C102.751 57.7039 102.833 57.4177 102.901 57.139C103.365 56.9281 104.803 56.2276 106.293 55.0225C107.184 54.2994 108.09 53.3956 108.802 52.2808C109.506 51.1661 110.007 49.8254 110.007 48.3039C110.007 48.0628 109.993 47.8218 109.97 47.5733C109.865 46.6016 109.648 45.743 109.319 44.9973ZM51.2375 56.9733C51.23 56.7398 51.2075 56.5138 51.1701 56.2879C51.6419 56.2276 52.2859 56.1222 53.0123 55.9263C53.9408 55.6778 55.0117 55.2936 56.0227 54.6685C56.135 55.1279 56.2623 55.61 56.427 56.1222C55.1839 56.2201 53.3043 56.446 51.2375 56.9733ZM83.8351 55.2635C83.8875 55.0601 83.9399 54.8643 83.9848 54.676C84.9958 55.3012 86.0666 55.6778 86.9877 55.9263C87.7141 56.1222 88.3581 56.2276 88.8299 56.2879C88.7925 56.5138 88.7775 56.7473 88.7625 56.9733C86.6957 56.446 84.8236 56.2201 83.5805 56.1222C83.6703 55.8284 83.7602 55.5347 83.8351 55.2635ZM106.907 51.0757C106.121 52.326 104.848 53.373 103.77 54.081C103.537 54.2316 103.32 54.3597 103.118 54.4802C103.021 53.9002 102.496 53.4859 101.905 53.5462C101.291 53.6064 100.842 54.1563 100.901 54.7739C100.901 54.7739 100.909 54.8869 100.909 55.0677C100.916 55.6476 100.804 56.9582 100.123 58.088C99.7782 58.6529 99.3139 59.1877 98.6099 59.6321C97.921 60.0614 96.9999 60.4079 95.7343 60.5586C93.8772 60.4531 92.679 59.9485 91.9901 59.3459C91.2862 58.7358 91.0091 58.0278 90.9941 57.2068C90.9791 55.8585 91.9227 54.209 93.5851 53.2524C95.0754 52.3938 96.5057 52.1377 97.7338 52.1377C98.7148 52.1377 99.561 52.3109 100.145 52.4766C100.437 52.5595 100.669 52.6423 100.819 52.7026C100.894 52.7327 100.946 52.7553 100.984 52.7704L101.014 52.7855C101.508 53.0265 102.085 52.8683 102.407 52.4465C102.526 52.4164 102.639 52.3637 102.744 52.2959C102.766 52.2808 103.463 51.7912 104.196 51.1058C104.563 50.7593 104.945 50.3677 105.26 49.9233C105.417 49.6973 105.567 49.4563 105.679 49.1851C105.791 48.914 105.881 48.6052 105.881 48.2436C105.889 47.8595 105.747 47.4076 105.477 47.0686C105.207 46.7297 104.855 46.5037 104.481 46.3531C104.092 46.1949 103.687 46.1271 103.298 46.1271C102.496 46.1271 101.793 46.4058 101.186 46.7598C100.28 47.2946 99.561 48.0101 99.0368 48.6052C98.5126 49.1927 98.1981 49.6596 98.1756 49.6898C98.1307 49.7576 98.0932 49.8254 98.0633 49.8931C97.951 49.8931 97.8461 49.8781 97.7263 49.8781C96.1837 49.8781 94.3265 50.217 92.4619 51.2866C91.2412 51.9946 90.2752 52.9738 89.6312 54.081C89.3841 54.0659 88.5229 53.9831 87.497 53.7044C86.2838 53.3805 84.8909 52.7704 84.0223 51.8063C83.7152 51.4749 83.2435 51.3544 82.8166 51.505C82.3898 51.6556 82.0977 52.0473 82.0753 52.4992C82.0453 53.1244 81.7982 54.2617 81.3788 55.5874C80.7498 57.5759 79.7388 60.0313 78.5107 62.2759C77.2901 64.5204 75.8298 66.5541 74.4295 67.699C73.9502 68.0982 73.8828 68.8062 74.2722 69.2882C74.6691 69.7703 75.373 69.8381 75.8523 69.4464C76.5038 68.9041 77.1253 68.2488 77.7094 67.5332C78.0165 68.6329 78.346 70.2599 78.3385 72.1579C78.3385 73.9204 78.0614 75.9089 77.2302 77.9501C76.4064 79.9913 75.0285 82.1003 72.7895 84.1113C72.3252 84.5256 72.2877 85.2411 72.6996 85.7081C73.1115 86.1751 73.8229 86.2128 74.2872 85.7985C75.1259 85.0453 75.8598 84.2695 76.5038 83.4786C76.5337 84.2469 76.5637 85.1432 76.5637 86.1149C76.5637 88.6004 76.399 91.5455 75.8298 93.6921C75.1933 95.7333 75.036 97.3151 75.036 98.3545C75.036 98.701 75.0585 98.9796 75.0735 99.2056L74.9836 99.1228C73.778 97.9101 72.6247 97.2623 71.7261 96.9234C70.8275 96.5844 70.2059 96.5618 70.0412 96.5618H69.9588L69.9289 96.5694L69.8914 96.5618H69.8165C69.6518 96.5618 69.0452 96.592 68.1691 96.9234C67.3004 97.2623 66.1621 97.9101 64.964 99.1152L64.8741 99.1981C64.8966 98.9721 64.9115 98.701 64.9115 98.347C64.9115 97.3075 64.7543 95.7258 64.1178 93.6846C63.5486 91.538 63.3839 88.5929 63.3839 86.1073C63.3839 85.1357 63.4063 84.2469 63.4438 83.4711C64.0878 84.2544 64.8217 85.0302 65.6604 85.7835C66.1247 86.1977 66.8361 86.1601 67.248 85.6931C67.6598 85.2261 67.6224 84.5105 67.1581 84.0963C64.919 82.0852 63.5411 79.9762 62.7174 77.935C61.8937 75.8938 61.6166 73.9054 61.6091 72.1429C61.6091 70.3502 61.9012 68.7911 62.1932 67.699L62.2381 67.5257C62.8297 68.2413 63.4513 68.889 64.1028 69.4313C64.582 69.8305 65.2935 69.7552 65.6829 69.2732C66.0798 68.7911 66.0049 68.0831 65.5256 67.6839C64.597 66.9231 63.631 65.7632 62.7399 64.4074C61.3919 62.3813 60.1938 59.9183 59.3251 57.6888C58.8908 56.5741 58.5388 55.5196 58.2917 54.6157C58.0446 53.7119 57.9023 52.9512 57.8798 52.4842C57.8499 52.0322 57.5578 51.6406 57.1384 51.4899C56.7116 51.3393 56.2398 51.4523 55.9328 51.7912C55.0491 52.7704 53.6263 53.3805 52.3982 53.7044C51.7916 53.8625 51.2375 53.9605 50.8481 54.0056C50.6534 54.0282 50.4961 54.0433 50.3913 54.0584L50.3164 54.0659C49.6724 52.9512 48.7064 51.972 47.4857 51.2715C45.6136 50.1944 43.7639 49.8555 42.2213 49.863C42.1015 49.863 41.9966 49.8705 41.8843 49.8781C41.8543 49.8103 41.8169 49.7425 41.772 49.6747C41.742 49.637 41.1954 48.8236 40.3192 47.9649C39.8849 47.5356 39.3607 47.0987 38.7616 46.7447C38.1625 46.3983 37.4511 46.112 36.6498 46.112C36.2604 46.112 35.856 46.1798 35.4666 46.338C35.0922 46.4886 34.7402 46.7146 34.4707 47.0535C34.2011 47.3925 34.0588 47.8369 34.0663 48.2286C34.0663 48.5901 34.1561 48.8989 34.2685 49.1701C34.4707 49.6446 34.7627 50.0287 35.0697 50.3827C35.534 50.9175 36.0582 51.3694 36.4701 51.7084C36.882 52.0473 37.189 52.2582 37.204 52.2733C37.3088 52.3486 37.4211 52.3938 37.541 52.4239C37.8555 52.8532 38.4396 53.0039 38.9338 52.7629C39.0162 52.7177 40.3866 52.1151 42.2213 52.1151C43.4494 52.1151 44.8797 52.3712 46.3699 53.2298C48.0399 54.1789 48.9759 55.8359 48.961 57.1842C48.9535 58.0052 48.6689 58.7057 47.965 59.3233C47.2686 59.9183 46.0779 60.423 44.2207 60.536C42.9552 60.3853 42.0341 60.0388 41.3451 59.6095C40.3042 58.9467 39.7501 58.073 39.4206 57.1992C39.0986 56.3331 39.0387 55.4819 39.0461 55.0451C39.0461 54.9396 39.0461 54.8568 39.0536 54.8116V54.7589V54.7513C39.1135 54.1337 38.6642 53.5839 38.0502 53.5161C37.4586 53.4558 36.9344 53.8701 36.837 54.45C36.2904 54.1337 35.6389 53.7119 34.9949 53.1771C34.2535 52.567 33.5346 51.8289 33.0179 51.0079C32.5611 50.202 32.2466 49.3132 32.2466 48.3114C32.2466 48.1532 32.254 47.9875 32.269 47.8143C32.3514 47.031 32.5161 46.4058 32.7333 45.9237C33.0628 45.1931 33.4822 44.7713 34.0064 44.47C34.5381 44.1763 35.212 44.0181 36.0358 44.0181C36.9793 44.0181 38.0951 44.229 39.2633 44.6056C41.0156 45.1705 42.8878 46.112 44.5427 47.1515C46.2052 48.1909 47.6654 49.3433 48.6015 50.2848C48.9834 50.684 49.4028 50.9928 49.8596 51.2037C50.3164 51.4146 50.8031 51.5201 51.2674 51.5201C52.0687 51.5201 52.7876 51.2414 53.4092 50.8648C54.3452 50.2923 55.1165 49.4939 55.7905 48.6955C56.457 47.9047 57.0186 47.1138 57.408 46.5866C58.0446 45.7279 59.4224 44.1236 61.4518 42.7603C63.4962 41.3894 66.1472 40.2596 69.4271 40.2596H69.6143C69.7491 40.2596 69.8839 40.237 70.0037 40.1918C70.1236 40.237 70.2509 40.2596 70.3931 40.2596H70.5804C73.8603 40.2596 76.5113 41.3894 78.5407 42.7603C80.5626 44.1236 81.948 45.7354 82.5845 46.5866C83.1087 47.287 83.9174 48.4545 84.9134 49.4864C85.4151 49.9986 85.9618 50.4882 86.5834 50.8648C87.2049 51.2414 87.9238 51.5201 88.7251 51.5201C89.1969 51.5201 89.6836 51.4146 90.1404 51.2037C90.5897 50.9928 91.0091 50.684 91.3985 50.2848C92.6491 49.0194 94.8282 47.4076 97.1796 46.1572C98.3553 45.5321 99.576 44.9898 100.744 44.6132C101.912 44.2366 103.028 44.0181 103.972 44.0257C104.518 44.0257 105.005 44.0934 105.425 44.229C106.054 44.4324 106.525 44.7563 106.915 45.2986C107.304 45.8409 107.619 46.6468 107.738 47.8218C107.753 47.9875 107.761 48.1532 107.761 48.3189C107.753 49.3282 107.431 50.2321 106.907 51.0757ZM102.174 49.9007C101.972 50.0664 101.793 50.2095 101.665 50.2999L101.515 50.4129L101.478 50.443L101.471 50.4505L101.388 50.5183C101.171 50.443 100.909 50.3601 100.594 50.2697C100.774 50.0588 100.991 49.8178 101.238 49.5843C101.583 49.2529 101.972 48.929 102.347 48.7181C102.721 48.4997 103.058 48.4018 103.313 48.4018C103.403 48.4018 103.477 48.4244 103.56 48.447C103.515 48.5298 103.455 48.6202 103.373 48.7257C103.058 49.1098 102.571 49.5693 102.174 49.9007ZM38.6193 50.5108L38.5369 50.443C38.4845 50.4053 37.8555 49.9534 37.2789 49.4036C36.9943 49.1324 36.7172 48.8311 36.5525 48.5901L36.4626 48.447C36.545 48.4244 36.6199 48.4018 36.7097 48.4018C36.9643 48.4018 37.3088 48.4997 37.6907 48.7257C38.2599 49.0571 38.8664 49.6295 39.2933 50.1191L39.4206 50.2697C39.0986 50.3526 38.829 50.4354 38.6193 50.5108Z" fill="white"/>
</g>
<defs>
<linearGradient id="paint0_linear" x1="0" y1="0" x2="151.261" y2="126.538" gradientUnits="userSpaceOnUse">
<stop stop-color="#9E1F63"/>
<stop offset="1" stop-color="#F7941D"/>
</linearGradient>
<clipPath id="clip0">
<rect width="80" height="64" fill="white" transform="translate(30 38)"/>
</clipPath>
</defs>
</svg>
