<svg width="41" height="41" viewBox="0 0 41 41" fill="none" xmlns="http://www.w3.org/2000/svg">
<rect x="0.75" y="0.75" width="40" height="40" rx="20" fill="#F7941D"/>
<g clip-path="url(#clip0)">
<path d="M28.6797 16.751C28.7067 16.8536 28.7183 17.021 28.7183 17.2492C28.7183 19.0937 28.2626 20.8774 27.351 22.5964C26.4124 24.4182 25.0992 25.8672 23.4074 26.9435C21.5573 28.1491 19.4368 28.75 17.0381 28.75C14.7477 28.75 12.6503 28.1491 10.75 26.9435C11.0358 26.9701 11.3603 26.9815 11.7272 26.9815C13.6276 26.9815 15.3348 26.4034 16.845 25.2511C15.9335 25.2511 15.1339 24.9886 14.4425 24.4638C13.7512 23.939 13.2761 23.2772 13.0173 22.4824C13.2761 22.509 13.5233 22.5204 13.7589 22.5204C14.122 22.5204 14.4889 22.4824 14.852 22.4063C13.9134 22.2009 13.1332 21.7255 12.5074 20.9839C11.8817 20.2423 11.5688 19.3942 11.5688 18.4472V18.3711C12.1405 18.7058 12.7546 18.8845 13.4035 18.9112C12.8551 18.527 12.4147 18.0402 12.0748 17.4507C11.7349 16.8612 11.5688 16.2071 11.5688 15.4997C11.5688 14.7923 11.7658 14.1229 12.1559 13.4802C13.1718 14.7353 14.4155 15.7355 15.8871 16.4809C17.3587 17.2263 18.9269 17.6333 20.5955 17.7132C20.5453 17.4051 20.5183 17.097 20.5183 16.789C20.5183 16.0702 20.6998 15.397 21.0667 14.7695C21.4298 14.142 21.9242 13.6476 22.5499 13.2901C23.1718 12.9287 23.8477 12.75 24.5777 12.75C25.1764 12.75 25.7288 12.8641 26.2386 13.0961C26.7485 13.3281 27.1965 13.6361 27.5866 14.0203C28.5252 13.8415 29.3981 13.522 30.2054 13.0581C29.8925 14.0051 29.2938 14.7505 28.4093 15.2905C29.1896 15.1878 29.9736 14.9711 30.7539 14.6364C30.1784 15.4541 29.487 16.1615 28.6797 16.751Z" fill="white"/>
</g>
<defs>
<clipPath id="clip0">
<rect width="20" height="16" fill="white" transform="translate(10.75 12.75)"/>
</clipPath>
</defs>
</svg>
